# xmcd
#
# Track frame offsets:
# 150
# 16027
# 28187
# 39260
# 54045
# 74020
# 88372
# 104770
# 114577
# 139392
# 149895
# 167662
#
# Disc length: 2470 seconds
#
#
# Revision: 0
# Processed by: cddbd v1.5.1PL0 Copyright (c) Steve Scherf et al.
# Submitted via: FreeRIP 2.91 
#
DISCID=b109a40c
DTITLE=Doug Mansfield - You Can Never Go Home
DYEAR=1996
DGENRE=Country
TTITLE0=One More Beer
TTITLE1=Sticky Wicket
TTITLE2=On The Ground
TTITLE3=Messin Around
TTITLE4=You Can Never Go Home
TTITLE5=The Ballard Of Steve Miller
TTITLE6=Buckle Bunny Bride
TTITLE7=My House is Leavin Home
TTITLE8=The Girl Who Cleans The Ash Trays
TTITLE9=Little Details
TTITLE10=Bustburger Boogie
TTITLE11=One more drinking song
EXTD=
EXTT0=
EXTT1=
EXTT2=
EXTT3=
EXTT4=
EXTT5=
EXTT6=
EXTT7=
EXTT8=
EXTT9=
EXTT10=
EXTT11=
PLAYORDER=
